<?xml version="1.0" encoding="UTF-8"?>
<svg id="Camada_1" data-name="Camada 1" xmlns="http://www.w3.org/2000/svg" xmlns:xlink="http://www.w3.org/1999/xlink" viewBox="0 0 1497.6 207">
  <defs>
    <style>
      .cls-1, .cls-2 {
        fill: none;
      }

      .cls-1, .cls-3 {
        stroke-width: 0px;
      }

      .cls-2 {
        stroke: #c2e09d;
        stroke-miterlimit: 10;
        stroke-width: .5px;
      }

      .cls-4 {
        clip-path: url(#clippath);
      }

      .cls-3 {
        fill: url(#Gradiente_sem_nome_4);
      }
    </style>
    <clipPath id="clippath">
      <polygon class="cls-1" points="74.56 -205.2 74.56 -188.89 80.87 -173.11 80.87 -130.5 74.56 -116.3 74.56 -99 1022.42 -99 1053.98 -130.5 1053.98 -205.2 74.56 -205.2"/>
    </clipPath>
    <linearGradient id="Gradiente_sem_nome_4" data-name="Gradiente sem nome 4" x1="31.53" y1="160.6" x2="1470.6" y2="50.53" gradientUnits="userSpaceOnUse">
      <stop offset="0" stop-color="#fff"/>
      <stop offset="1" stop-color="#ccc"/>
    </linearGradient>
  </defs>
  <g class="cls-4">
    <g>
      <line class="cls-2" x1="66.34" y1="-256.89" x2="66.34" y2="66.55"/>
      <line class="cls-2" x1="81.54" y1="-256.89" x2="81.54" y2="66.55"/>
      <line class="cls-2" x1="96.73" y1="-256.89" x2="96.73" y2="66.55"/>
      <line class="cls-2" x1="111.93" y1="-256.89" x2="111.93" y2="66.55"/>
      <line class="cls-2" x1="127.12" y1="-256.89" x2="127.12" y2="66.55"/>
      <line class="cls-2" x1="142.32" y1="-256.89" x2="142.32" y2="66.55"/>
      <line class="cls-2" x1="157.52" y1="-256.89" x2="157.52" y2="66.55"/>
      <line class="cls-2" x1="172.71" y1="-256.89" x2="172.71" y2="66.55"/>
      <line class="cls-2" x1="187.91" y1="-256.89" x2="187.91" y2="66.55"/>
      <line class="cls-2" x1="203.1" y1="-256.89" x2="203.1" y2="66.55"/>
      <line class="cls-2" x1="218.3" y1="-256.89" x2="218.3" y2="66.55"/>
      <line class="cls-2" x1="233.49" y1="-256.89" x2="233.49" y2="66.55"/>
      <line class="cls-2" x1="248.69" y1="-256.89" x2="248.69" y2="66.55"/>
      <line class="cls-2" x1="263.88" y1="-256.89" x2="263.88" y2="66.55"/>
      <line class="cls-2" x1="279.08" y1="-256.89" x2="279.08" y2="66.55"/>
      <line class="cls-2" x1="294.28" y1="-256.89" x2="294.28" y2="66.55"/>
      <line class="cls-2" x1="309.47" y1="-256.89" x2="309.47" y2="66.55"/>
      <line class="cls-2" x1="324.67" y1="-256.89" x2="324.67" y2="66.55"/>
      <line class="cls-2" x1="339.86" y1="-256.89" x2="339.86" y2="66.55"/>
      <line class="cls-2" x1="355.06" y1="-256.89" x2="355.06" y2="66.55"/>
      <line class="cls-2" x1="370.25" y1="-256.89" x2="370.25" y2="66.55"/>
      <line class="cls-2" x1="385.45" y1="-256.89" x2="385.45" y2="66.55"/>
      <line class="cls-2" x1="400.64" y1="-256.89" x2="400.64" y2="66.55"/>
      <line class="cls-2" x1="415.84" y1="-256.89" x2="415.84" y2="66.55"/>
      <line class="cls-2" x1="431.04" y1="-256.89" x2="431.04" y2="66.55"/>
      <line class="cls-2" x1="446.23" y1="-256.89" x2="446.23" y2="66.55"/>
      <line class="cls-2" x1="461.43" y1="-256.89" x2="461.43" y2="66.55"/>
      <line class="cls-2" x1="476.62" y1="-256.89" x2="476.62" y2="66.55"/>
      <line class="cls-2" x1="491.82" y1="-256.89" x2="491.82" y2="66.55"/>
      <line class="cls-2" x1="507.01" y1="-256.89" x2="507.01" y2="66.55"/>
      <line class="cls-2" x1="522.21" y1="-256.89" x2="522.21" y2="66.55"/>
      <line class="cls-2" x1="537.4" y1="-256.89" x2="537.4" y2="66.55"/>
      <line class="cls-2" x1="552.6" y1="-256.89" x2="552.6" y2="66.55"/>
      <line class="cls-2" x1="567.79" y1="-256.89" x2="567.79" y2="66.55"/>
      <line class="cls-2" x1="582.99" y1="-256.89" x2="582.99" y2="66.55"/>
      <line class="cls-2" x1="598.19" y1="-256.89" x2="598.19" y2="66.55"/>
      <line class="cls-2" x1="613.38" y1="-256.89" x2="613.38" y2="66.55"/>
      <line class="cls-2" x1="628.58" y1="-256.89" x2="628.58" y2="66.55"/>
      <line class="cls-2" x1="643.77" y1="-256.89" x2="643.77" y2="66.55"/>
      <line class="cls-2" x1="658.97" y1="-256.89" x2="658.97" y2="66.55"/>
      <line class="cls-2" x1="674.16" y1="-256.89" x2="674.16" y2="66.55"/>
      <line class="cls-2" x1="689.36" y1="-256.89" x2="689.36" y2="66.55"/>
      <line class="cls-2" x1="704.55" y1="-256.89" x2="704.55" y2="66.55"/>
      <line class="cls-2" x1="719.75" y1="-256.89" x2="719.75" y2="66.55"/>
      <line class="cls-2" x1="734.95" y1="-256.89" x2="734.95" y2="66.55"/>
      <line class="cls-2" x1="750.14" y1="-256.89" x2="750.14" y2="66.55"/>
      <line class="cls-2" x1="765.34" y1="-256.89" x2="765.34" y2="66.55"/>
      <line class="cls-2" x1="780.53" y1="-256.89" x2="780.53" y2="66.55"/>
      <line class="cls-2" x1="795.73" y1="-256.89" x2="795.73" y2="66.55"/>
      <line class="cls-2" x1="810.92" y1="-256.89" x2="810.92" y2="66.55"/>
      <line class="cls-2" x1="826.12" y1="-256.89" x2="826.12" y2="66.55"/>
      <line class="cls-2" x1="841.31" y1="-256.89" x2="841.31" y2="66.55"/>
      <line class="cls-2" x1="856.51" y1="-256.89" x2="856.51" y2="66.55"/>
      <line class="cls-2" x1="871.71" y1="-256.89" x2="871.71" y2="66.55"/>
      <line class="cls-2" x1="886.9" y1="-256.89" x2="886.9" y2="66.55"/>
      <line class="cls-2" x1="902.1" y1="-256.89" x2="902.1" y2="66.55"/>
      <line class="cls-2" x1="917.29" y1="-256.89" x2="917.29" y2="66.55"/>
      <line class="cls-2" x1="932.49" y1="-256.89" x2="932.49" y2="66.55"/>
      <line class="cls-2" x1="947.68" y1="-256.89" x2="947.68" y2="66.55"/>
      <line class="cls-2" x1="962.88" y1="-256.89" x2="962.88" y2="66.55"/>
      <line class="cls-2" x1="978.07" y1="-256.89" x2="978.07" y2="66.55"/>
      <line class="cls-2" x1="993.27" y1="-256.89" x2="993.27" y2="66.55"/>
      <line class="cls-2" x1="1008.47" y1="-256.89" x2="1008.47" y2="66.55"/>
      <line class="cls-2" x1="1023.66" y1="-256.89" x2="1023.66" y2="66.55"/>
      <line class="cls-2" x1="1038.86" y1="-256.89" x2="1038.86" y2="66.55"/>
      <line class="cls-2" x1="1054.05" y1="-256.89" x2="1054.05" y2="66.55"/>
      <line class="cls-2" x1="54.95" y1="6.56" x2="1075.58" y2="6.56"/>
      <line class="cls-2" x1="54.95" y1="22.21" x2="1075.58" y2="22.21"/>
      <line class="cls-2" x1="54.95" y1="37.86" x2="1075.58" y2="37.86"/>
      <line class="cls-2" x1="54.95" y1="53.51" x2="1075.58" y2="53.51"/>
    </g>
  </g>
  <path class="cls-3" d="M1419.14,33.3H85.66l-58.5,56.7v83.7h407.6l45.9-21.6h833.61l39.39,21.6h116.77v-102.6l-51.3-37.8ZM1450.86,153h-90.35l-39.25-22.5H499.33l-22.27-20.33v-42.22l20.7-19.35h896.4l56.7,41.7v62.7Z"/>
</svg>