<?xml version="1.0" encoding="UTF-8"?>
<svg id="Camada_1" data-name="Camada 1" xmlns="http://www.w3.org/2000/svg" xmlns:xlink="http://www.w3.org/1999/xlink" viewBox="0 0 1089.4 207">
  <defs>
    <style>
      .cls-1, .cls-2 {
        stroke-width: 0px;
      }

      .cls-1, .cls-3 {
        fill: none;
      }

      .cls-2 {
        fill: url(#Gradiente_sem_nome_19);
      }

      .cls-3 {
        stroke: #c2e09d;
        stroke-miterlimit: 10;
        stroke-width: .5px;
      }

      .cls-4 {
        clip-path: url(#clippath);
      }
    </style>
    <linearGradient id="Gradiente_sem_nome_19" data-name="Gradiente sem nome 19" x1="52.08" y1="203.71" x2="1001.35" y2="12.08" gradientUnits="userSpaceOnUse">
      <stop offset="0" stop-color="#67af38"/>
      <stop offset=".94" stop-color="#00553e"/>
    </linearGradient>
    <clipPath id="clippath">
      <polygon class="cls-1" points="74.56 50.4 74.56 66.71 80.87 82.49 80.87 125.1 74.56 139.3 74.56 156.6 1022.42 156.6 1053.98 125.1 1053.98 50.4 74.56 50.4"/>
    </clipPath>
  </defs>
  <polygon class="cls-2" points="74.56 50.4 74.56 66.71 80.87 82.49 80.87 125.1 74.56 139.3 74.56 156.6 1022.42 156.6 1053.98 125.1 1053.98 50.4 74.56 50.4"/>
  <g class="cls-4">
    <g>
      <line class="cls-3" x1="66.34" y1="-1.29" x2="66.34" y2="322.15"/>
      <line class="cls-3" x1="81.54" y1="-1.29" x2="81.54" y2="322.15"/>
      <line class="cls-3" x1="96.73" y1="-1.29" x2="96.73" y2="322.15"/>
      <line class="cls-3" x1="111.93" y1="-1.29" x2="111.93" y2="322.15"/>
      <line class="cls-3" x1="127.12" y1="-1.29" x2="127.12" y2="322.15"/>
      <line class="cls-3" x1="142.32" y1="-1.29" x2="142.32" y2="322.15"/>
      <line class="cls-3" x1="157.52" y1="-1.29" x2="157.52" y2="322.15"/>
      <line class="cls-3" x1="172.71" y1="-1.29" x2="172.71" y2="322.15"/>
      <line class="cls-3" x1="187.91" y1="-1.29" x2="187.91" y2="322.15"/>
      <line class="cls-3" x1="203.1" y1="-1.29" x2="203.1" y2="322.15"/>
      <line class="cls-3" x1="218.3" y1="-1.29" x2="218.3" y2="322.15"/>
      <line class="cls-3" x1="233.49" y1="-1.29" x2="233.49" y2="322.15"/>
      <line class="cls-3" x1="248.69" y1="-1.29" x2="248.69" y2="322.15"/>
      <line class="cls-3" x1="263.88" y1="-1.29" x2="263.88" y2="322.15"/>
      <line class="cls-3" x1="279.08" y1="-1.29" x2="279.08" y2="322.15"/>
      <line class="cls-3" x1="294.28" y1="-1.29" x2="294.28" y2="322.15"/>
      <line class="cls-3" x1="309.47" y1="-1.29" x2="309.47" y2="322.15"/>
      <line class="cls-3" x1="324.67" y1="-1.29" x2="324.67" y2="322.15"/>
      <line class="cls-3" x1="339.86" y1="-1.29" x2="339.86" y2="322.15"/>
      <line class="cls-3" x1="355.06" y1="-1.29" x2="355.06" y2="322.15"/>
      <line class="cls-3" x1="370.25" y1="-1.29" x2="370.25" y2="322.15"/>
      <line class="cls-3" x1="385.45" y1="-1.29" x2="385.45" y2="322.15"/>
      <line class="cls-3" x1="400.64" y1="-1.29" x2="400.64" y2="322.15"/>
      <line class="cls-3" x1="415.84" y1="-1.29" x2="415.84" y2="322.15"/>
      <line class="cls-3" x1="431.04" y1="-1.29" x2="431.04" y2="322.15"/>
      <line class="cls-3" x1="446.23" y1="-1.29" x2="446.23" y2="322.15"/>
      <line class="cls-3" x1="461.43" y1="-1.29" x2="461.43" y2="322.15"/>
      <line class="cls-3" x1="476.62" y1="-1.29" x2="476.62" y2="322.15"/>
      <line class="cls-3" x1="491.82" y1="-1.29" x2="491.82" y2="322.15"/>
      <line class="cls-3" x1="507.01" y1="-1.29" x2="507.01" y2="322.15"/>
      <line class="cls-3" x1="522.21" y1="-1.29" x2="522.21" y2="322.15"/>
      <line class="cls-3" x1="537.4" y1="-1.29" x2="537.4" y2="322.15"/>
      <line class="cls-3" x1="552.6" y1="-1.29" x2="552.6" y2="322.15"/>
      <line class="cls-3" x1="567.79" y1="-1.29" x2="567.79" y2="322.15"/>
      <line class="cls-3" x1="582.99" y1="-1.29" x2="582.99" y2="322.15"/>
      <line class="cls-3" x1="598.19" y1="-1.29" x2="598.19" y2="322.15"/>
      <line class="cls-3" x1="613.38" y1="-1.29" x2="613.38" y2="322.15"/>
      <line class="cls-3" x1="628.58" y1="-1.29" x2="628.58" y2="322.15"/>
      <line class="cls-3" x1="643.77" y1="-1.29" x2="643.77" y2="322.15"/>
      <line class="cls-3" x1="658.97" y1="-1.29" x2="658.97" y2="322.15"/>
      <line class="cls-3" x1="674.16" y1="-1.29" x2="674.16" y2="322.15"/>
      <line class="cls-3" x1="689.36" y1="-1.29" x2="689.36" y2="322.15"/>
      <line class="cls-3" x1="704.55" y1="-1.29" x2="704.55" y2="322.15"/>
      <line class="cls-3" x1="719.75" y1="-1.29" x2="719.75" y2="322.15"/>
      <line class="cls-3" x1="734.95" y1="-1.29" x2="734.95" y2="322.15"/>
      <line class="cls-3" x1="750.14" y1="-1.29" x2="750.14" y2="322.15"/>
      <line class="cls-3" x1="765.34" y1="-1.29" x2="765.34" y2="322.15"/>
      <line class="cls-3" x1="780.53" y1="-1.29" x2="780.53" y2="322.15"/>
      <line class="cls-3" x1="795.73" y1="-1.29" x2="795.73" y2="322.15"/>
      <line class="cls-3" x1="810.92" y1="-1.29" x2="810.92" y2="322.15"/>
      <line class="cls-3" x1="826.12" y1="-1.29" x2="826.12" y2="322.15"/>
      <line class="cls-3" x1="841.31" y1="-1.29" x2="841.31" y2="322.15"/>
      <line class="cls-3" x1="856.51" y1="-1.29" x2="856.51" y2="322.15"/>
      <line class="cls-3" x1="871.71" y1="-1.29" x2="871.71" y2="322.15"/>
      <line class="cls-3" x1="886.9" y1="-1.29" x2="886.9" y2="322.15"/>
      <line class="cls-3" x1="902.1" y1="-1.29" x2="902.1" y2="322.15"/>
      <line class="cls-3" x1="917.29" y1="-1.29" x2="917.29" y2="322.15"/>
      <line class="cls-3" x1="932.49" y1="-1.29" x2="932.49" y2="322.15"/>
      <line class="cls-3" x1="947.68" y1="-1.29" x2="947.68" y2="322.15"/>
      <line class="cls-3" x1="962.88" y1="-1.29" x2="962.88" y2="322.15"/>
      <line class="cls-3" x1="978.07" y1="-1.29" x2="978.07" y2="322.15"/>
      <line class="cls-3" x1="993.27" y1="-1.29" x2="993.27" y2="322.15"/>
      <line class="cls-3" x1="1008.47" y1="-1.29" x2="1008.47" y2="322.15"/>
      <line class="cls-3" x1="1023.66" y1="-1.29" x2="1023.66" y2="322.15"/>
      <line class="cls-3" x1="1038.86" y1="-1.29" x2="1038.86" y2="322.15"/>
      <line class="cls-3" x1="1054.05" y1="-1.29" x2="1054.05" y2="322.15"/>
      <line class="cls-3" x1="54.95" y1="11.76" x2="1075.58" y2="11.76"/>
      <line class="cls-3" x1="54.95" y1="27.41" x2="1075.58" y2="27.41"/>
      <line class="cls-3" x1="54.95" y1="43.06" x2="1075.58" y2="43.06"/>
      <line class="cls-3" x1="54.95" y1="58.71" x2="1075.58" y2="58.71"/>
      <line class="cls-3" x1="54.95" y1="74.36" x2="1075.58" y2="74.36"/>
      <line class="cls-3" x1="54.95" y1="90.01" x2="1075.58" y2="90.01"/>
      <line class="cls-3" x1="54.95" y1="105.66" x2="1075.58" y2="105.66"/>
      <line class="cls-3" x1="54.95" y1="121.31" x2="1075.58" y2="121.31"/>
      <line class="cls-3" x1="54.95" y1="136.96" x2="1075.58" y2="136.96"/>
      <line class="cls-3" x1="54.95" y1="152.61" x2="1075.58" y2="152.61"/>
      <line class="cls-3" x1="54.95" y1="168.26" x2="1075.58" y2="168.26"/>
      <line class="cls-3" x1="54.95" y1="183.91" x2="1075.58" y2="183.91"/>
      <line class="cls-3" x1="54.95" y1="199.56" x2="1075.58" y2="199.56"/>
    </g>
  </g>
</svg>