<?xml version="1.0" encoding="UTF-8"?>
<svg id="Camada_1" data-name="Camada 1" xmlns="http://www.w3.org/2000/svg" xmlns:xlink="http://www.w3.org/1999/xlink" viewBox="0 0 1497.6 599.48">
  <defs>
    <style>
      .cls-1, .cls-2 {
        stroke-width: 0px;
      }

      .cls-1, .cls-3 {
        fill: none;
      }

      .cls-2 {
        fill: url(#Gradiente_sem_nome_19);
      }

      .cls-3 {
        stroke: #c2e09d;
        stroke-miterlimit: 10;
        stroke-width: .5px;
      }

      .cls-4 {
        clip-path: url(#clippath);
      }
    </style>
    <linearGradient id="Gradiente_sem_nome_19" data-name="Gradiente sem nome 19" x1="44.1" y1="294.27" x2="1453.5" y2="294.27" gradientUnits="userSpaceOnUse">
      <stop offset="0" stop-color="#67af38"/>
      <stop offset=".94" stop-color="#00553e"/>
    </linearGradient>
    <clipPath id="clippath">
      <polygon class="cls-1" points="1403.95 544.25 44.1 544.25 44.1 447.07 71.02 405.74 71.02 271.88 44.1 239.03 44.1 84.09 71.1 64.25 94.04 44.3 1398.3 44.3 1453.5 80.45 1453.5 483.87 1403.95 544.25"/>
    </clipPath>
  </defs>
  <polygon class="cls-2" points="1403.95 544.25 44.1 544.25 44.1 445.25 71.02 407.45 71.02 272.45 44.1 239.03 44.1 84.09 95.34 44.34 1398.3 44.3 1453.5 80.45 1453.5 489.03 1403.95 544.25"/>
  <g class="cls-4">
    <g>
      <line class="cls-3" x1="52.7" y1="37.55" x2="52.7" y2="562.25"/>
      <line class="cls-3" x1="76.43" y1="37.55" x2="76.43" y2="562.25"/>
      <line class="cls-3" x1="100.16" y1="37.55" x2="100.16" y2="562.25"/>
      <line class="cls-3" x1="123.89" y1="37.55" x2="123.89" y2="562.25"/>
      <line class="cls-3" x1="147.62" y1="37.55" x2="147.62" y2="562.25"/>
      <line class="cls-3" x1="171.35" y1="37.55" x2="171.35" y2="562.25"/>
      <line class="cls-3" x1="195.08" y1="37.55" x2="195.08" y2="562.25"/>
      <line class="cls-3" x1="218.81" y1="37.55" x2="218.81" y2="562.25"/>
      <line class="cls-3" x1="242.54" y1="37.55" x2="242.54" y2="562.25"/>
      <line class="cls-3" x1="266.27" y1="37.55" x2="266.27" y2="562.25"/>
      <line class="cls-3" x1="290" y1="37.55" x2="290" y2="562.25"/>
      <line class="cls-3" x1="313.73" y1="37.55" x2="313.73" y2="562.25"/>
      <line class="cls-3" x1="337.46" y1="37.55" x2="337.46" y2="562.25"/>
      <line class="cls-3" x1="361.19" y1="37.55" x2="361.19" y2="562.25"/>
      <line class="cls-3" x1="384.92" y1="37.55" x2="384.92" y2="562.25"/>
      <line class="cls-3" x1="408.65" y1="37.55" x2="408.65" y2="562.25"/>
      <line class="cls-3" x1="432.38" y1="37.55" x2="432.38" y2="562.25"/>
      <line class="cls-3" x1="456.11" y1="37.55" x2="456.11" y2="562.25"/>
      <line class="cls-3" x1="479.84" y1="37.55" x2="479.84" y2="562.25"/>
      <line class="cls-3" x1="503.57" y1="37.55" x2="503.57" y2="562.25"/>
      <line class="cls-3" x1="527.3" y1="37.55" x2="527.3" y2="562.25"/>
      <line class="cls-3" x1="551.03" y1="37.55" x2="551.03" y2="562.25"/>
      <line class="cls-3" x1="574.76" y1="37.55" x2="574.76" y2="562.25"/>
      <line class="cls-3" x1="598.49" y1="37.55" x2="598.49" y2="562.25"/>
      <line class="cls-3" x1="622.22" y1="37.55" x2="622.22" y2="562.25"/>
      <line class="cls-3" x1="645.95" y1="37.55" x2="645.95" y2="562.25"/>
      <line class="cls-3" x1="669.68" y1="37.55" x2="669.68" y2="562.25"/>
      <line class="cls-3" x1="693.41" y1="37.55" x2="693.41" y2="562.25"/>
      <line class="cls-3" x1="717.14" y1="37.55" x2="717.14" y2="562.25"/>
      <line class="cls-3" x1="740.87" y1="37.55" x2="740.87" y2="562.25"/>
      <line class="cls-3" x1="764.6" y1="37.55" x2="764.6" y2="562.25"/>
      <line class="cls-3" x1="788.33" y1="37.55" x2="788.33" y2="562.25"/>
      <line class="cls-3" x1="812.06" y1="37.55" x2="812.06" y2="562.25"/>
      <line class="cls-3" x1="835.79" y1="37.55" x2="835.79" y2="562.25"/>
      <line class="cls-3" x1="859.52" y1="37.55" x2="859.52" y2="562.25"/>
      <line class="cls-3" x1="883.25" y1="37.55" x2="883.25" y2="562.25"/>
      <line class="cls-3" x1="906.98" y1="37.55" x2="906.98" y2="562.25"/>
      <line class="cls-3" x1="930.7" y1="37.55" x2="930.7" y2="562.25"/>
      <line class="cls-3" x1="954.43" y1="37.55" x2="954.43" y2="562.25"/>
      <line class="cls-3" x1="978.16" y1="37.55" x2="978.16" y2="562.25"/>
      <line class="cls-3" x1="1001.89" y1="37.55" x2="1001.89" y2="562.25"/>
      <line class="cls-3" x1="1025.62" y1="37.55" x2="1025.62" y2="562.25"/>
      <line class="cls-3" x1="1049.35" y1="37.55" x2="1049.35" y2="562.25"/>
      <line class="cls-3" x1="1073.08" y1="37.55" x2="1073.08" y2="562.25"/>
      <line class="cls-3" x1="1096.81" y1="37.55" x2="1096.81" y2="562.25"/>
      <line class="cls-3" x1="1120.54" y1="37.55" x2="1120.54" y2="562.25"/>
      <line class="cls-3" x1="1144.27" y1="37.55" x2="1144.27" y2="562.25"/>
      <line class="cls-3" x1="1168" y1="37.55" x2="1168" y2="562.25"/>
      <line class="cls-3" x1="1191.73" y1="37.55" x2="1191.73" y2="562.25"/>
      <line class="cls-3" x1="1215.46" y1="37.55" x2="1215.46" y2="562.25"/>
      <line class="cls-3" x1="1239.19" y1="37.55" x2="1239.19" y2="562.25"/>
      <line class="cls-3" x1="1262.92" y1="37.55" x2="1262.92" y2="562.25"/>
      <line class="cls-3" x1="1286.65" y1="37.55" x2="1286.65" y2="562.25"/>
      <line class="cls-3" x1="1310.38" y1="37.55" x2="1310.38" y2="562.25"/>
      <line class="cls-3" x1="1334.11" y1="37.55" x2="1334.11" y2="562.25"/>
      <line class="cls-3" x1="1357.84" y1="37.55" x2="1357.84" y2="562.25"/>
      <line class="cls-3" x1="1381.57" y1="37.55" x2="1381.57" y2="562.25"/>
      <line class="cls-3" x1="1405.3" y1="37.55" x2="1405.3" y2="562.25"/>
      <line class="cls-3" x1="1429.03" y1="37.55" x2="1429.03" y2="562.25"/>
      <line class="cls-3" x1="1452.76" y1="37.55" x2="1452.76" y2="562.25"/>
      <line class="cls-3" x1="1476.49" y1="37.55" x2="1476.49" y2="562.25"/>
      <line class="cls-3" x1="34.9" y1="58.7" x2="1628.76" y2="58.7"/>
      <line class="cls-3" x1="34.9" y1="84.09" x2="1628.76" y2="84.09"/>
      <line class="cls-3" x1="34.9" y1="109.48" x2="1628.76" y2="109.48"/>
      <line class="cls-3" x1="34.9" y1="134.87" x2="1628.76" y2="134.87"/>
      <line class="cls-3" x1="34.9" y1="160.26" x2="1628.76" y2="160.26"/>
      <line class="cls-3" x1="34.9" y1="185.65" x2="1628.76" y2="185.65"/>
      <line class="cls-3" x1="34.9" y1="211.04" x2="1628.76" y2="211.04"/>
      <line class="cls-3" x1="34.9" y1="236.42" x2="1628.76" y2="236.42"/>
      <line class="cls-3" x1="34.9" y1="261.81" x2="1628.76" y2="261.81"/>
      <line class="cls-3" x1="34.9" y1="287.2" x2="1628.76" y2="287.2"/>
      <line class="cls-3" x1="34.9" y1="312.59" x2="1628.76" y2="312.59"/>
      <line class="cls-3" x1="34.9" y1="337.98" x2="1628.76" y2="337.98"/>
      <line class="cls-3" x1="34.9" y1="363.37" x2="1628.76" y2="363.37"/>
      <line class="cls-3" x1="34.9" y1="388.76" x2="1628.76" y2="388.76"/>
      <line class="cls-3" x1="34.9" y1="414.14" x2="1628.76" y2="414.14"/>
      <line class="cls-3" x1="34.9" y1="439.53" x2="1628.76" y2="439.53"/>
      <line class="cls-3" x1="34.9" y1="464.92" x2="1628.76" y2="464.92"/>
      <line class="cls-3" x1="34.9" y1="490.31" x2="1628.76" y2="490.31"/>
      <line class="cls-3" x1="34.9" y1="515.7" x2="1628.76" y2="515.7"/>
      <line class="cls-3" x1="34.9" y1="541.09" x2="1628.76" y2="541.09"/>
    </g>
  </g>
</svg>