<?xml version="1.0" encoding="UTF-8"?>
<svg id="Camada_1" data-name="Camada 1" xmlns="http://www.w3.org/2000/svg" viewBox="0 0 237.1 280.8">
  <defs>
    <style>
      .cls-1 {
        fill: #fff;
      }

      .cls-1, .cls-2 {
        stroke-width: 0px;
      }

      .cls-2 {
        fill: #0a8dff;
      }
    </style>
  </defs>
  <polygon class="cls-2" points="170.92 33.07 159.68 18.26 18.1 18.26 18.1 79.31 26.71 89 26.71 193.84 18.1 203.52 18.1 252.14 29.82 264.24 207.21 264.24 219 249.73 219 123.55 170.92 75.47 170.92 33.07"/>
  <g id="c133de6af664cd4f011a55de6b001b19">
    <path class="cls-1" d="M171,91.6l-10.53,114.01-45.61,12.28-45.61-12.28-10.52-114.01h112.26ZM149.79,114.78h-70.54l1.7,13.77h35.78l-1.9.79-32.64,13.59,1.08,13.46,31.56.1,16.91.05-1.08,17.94-15.83,4.46h0s-.13.02-.13.02l-15.29-3.86-.93-11.14h-14.28l1.86,21.5,28.77,8.51v-.02l.05.02,28.62-8.35,3.71-42.7h-32.46l.08-.03,33.57-14.35,1.39-13.77Z"/>
  </g>
</svg>