<?xml version="1.0" encoding="UTF-8"?>
<svg id="Camada_1" data-name="Camada 1" xmlns="http://www.w3.org/2000/svg" viewBox="0 0 237.1 280.8">
  <defs>
    <style>
      .cls-1 {
        fill: #c355ff;
      }

      .cls-1, .cls-2 {
        stroke-width: 0px;
      }

      .cls-2 {
        fill: #1a1a1a;
      }
    </style>
  </defs>
  <polygon class="cls-2" points="173.92 74.22 173.92 32.06 161.17 15.26 15.1 15.26 15.1 253.36 28.55 267.24 208.63 267.24 222 250.8 222 122.3 173.92 74.22"/>
  <path class="cls-1" d="M173.92,74.22v-42.16l-12.75-16.8H15.1v238.09l13.44,13.88h180.09l13.37-16.44V122.3l-48.08-48.08ZM219,249.73l-11.79,14.51H29.82l-11.71-12.1v-48.62l8.61-9.69v-104.84l-8.61-9.69V18.26h141.58l11.24,14.81v42.39l48.08,48.08v126.19Z"/>
  <g>
    <path class="cls-1" d="M85.95,169.16c-.16.26-.53.37-.89.16-.42-.16-.63-.53-.47-.79s.53-.37.95-.16c.37.21.58.53.42.79M88.52,171.53c-.26.21-.74.16-1.05-.26-.37-.37-.42-.84-.16-1.1.26-.21.74-.16,1.1.26.32.32.37.84.11,1.1M90.31,174.42c-.32.21-.84,0-1.21-.42-.32-.47-.32-1,0-1.21s.84-.05,1.21.42c.37.42.37,1,0,1.21M93.31,177.83c-.32.32-.89.21-1.37-.21-.42-.42-.58-1-.32-1.37.32-.32.95-.21,1.37.21.47.47.63,1.05.32,1.37M97.2,178.99c-.16.42-.68.63-1.31.42-.63-.16-.95-.68-.89-1.1.16-.42.68-.63,1.31-.42.63.21,1,.68.89,1.1M101.61,179.51c0,.42-.47.79-1.1.79s-1.16-.37-1.16-.74c0-.42.47-.79,1.1-.79.63-.11,1.16.26,1.16.74M105.87,179.3c.11.42-.37.84-.95.95-.63.16-1.21-.16-1.21-.58-.11-.42.37-.89.95-.95.63-.11,1.21.16,1.21.58"/>
    <path class="cls-1" d="M171.19,146.83c0-5.57-.89-10.98-2.52-16.03-6.78-21.13-26.54-36.37-49.93-36.37-28.96,0-52.45,23.49-52.45,52.45h0v.11c0,.58,0,1.16.05,1.73v.63c0,.53.05,1.05.11,1.63,0,.26.05.58.05.84s.05.53.11.84c2.26,20.65,16.45,37.68,35.53,44.04.11,0,.26.05.37.05,5.1,1.63,10.56,2.58,16.19,2.58,10.14,0,19.6-2.89,27.64-7.88h0c14.29-8.88,23.96-24.44,24.7-42.31v-.26c.16-.68.16-1.37.16-2.05q0,.05,0,0h0ZM128.25,170c1.89,1.63,3.57,4.83,3.57,9.72,0,5.41,0,9.99-.05,12.61-4.15,1.21-8.51,1.84-13.03,1.84s-8.88-.63-12.98-1.79c0-1.94-.05-4.83-.05-7.88-14.61,3.1-17.71-6.25-17.71-6.25-2.36-6.04-5.83-7.67-5.83-7.67-4.73-3.26.37-3.21.37-3.21,5.26.37,8.04,5.41,8.04,5.41,4.68,8.04,12.25,5.73,15.29,4.36.47-3.36,1.84-5.73,3.31-7.04-11.61-1.31-23.86-5.83-23.86-25.91,0-5.73,2.05-10.41,5.41-14.08-.53-1.31-2.31-6.67.53-13.87,0,0,4.41-1.42,14.45,5.36,4.15-1.16,8.67-1.73,13.14-1.73s8.93.63,13.14,1.73c9.99-6.78,14.4-5.36,14.4-5.36,2.84,7.25,1.05,12.56.53,13.87,3.36,3.68,5.41,8.36,5.41,14.08-.11,20.13-12.35,24.54-24.07,25.8Z"/>
  </g>
</svg>