<?xml version="1.0" encoding="UTF-8"?>
<svg id="Camada_1" data-name="Camada 1" xmlns="http://www.w3.org/2000/svg" viewBox="0 0 237.1 280.8">
  <defs>
    <style>
      .cls-1 {
        fill: #4285f4;
      }

      .cls-1, .cls-2, .cls-3, .cls-4, .cls-5, .cls-6, .cls-7 {
        stroke-width: 0px;
      }

      .cls-2 {
        fill: #1a1a1a;
      }

      .cls-3 {
        fill: #ea4335;
      }

      .cls-4 {
        fill: #fff;
      }

      .cls-5 {
        fill: #c5221f;
      }

      .cls-6 {
        fill: #34a853;
      }

      .cls-7 {
        fill: #fbbc04;
      }
    </style>
  </defs>
  <polygon class="cls-2" points="173.92 74.22 173.92 32.06 161.17 15.26 15.1 15.26 15.1 253.36 28.55 267.24 208.63 267.24 222 250.8 222 122.3 173.92 74.22"/>
  <path class="cls-4" d="M173.92,74.22v-42.16l-12.75-16.8H15.1v238.09l13.44,13.88h180.09l13.37-16.44V122.3l-48.08-48.08ZM219,249.73l-11.79,14.51H29.82l-11.71-12.1v-48.62l8.61-9.69v-104.84l-8.61-9.69V18.26h141.58l11.24,14.81v42.39l48.08,48.08v126.19Z"/>
  <path class="cls-1" d="M94.44,178.33v-29.09l-16.8-12.91v35.85c0,4.1,2.05,6.15,6.15,6.15"/>
  <path class="cls-3" d="M93.62,149.03l20.9,15.78,20.9-15.78v-20.08l-20.9,15.78-20.9-15.78"/>
  <path class="cls-6" d="M134.6,178.33v-29.09l16.8-12.91v35.85c0,4.1-2.05,6.15-6.15,6.15"/>
  <path class="cls-5" d="M77.64,136.74l16.8,12.91v-20.08l-6.15-4.71c-5.53-4.3-10.65,0-10.65,5.33"/>
  <path class="cls-7" d="M151.4,136.74l-16.8,12.91v-20.08l6.15-4.71c5.53-4.3,10.65,0,10.65,5.33"/>
</svg>