<?xml version="1.0" encoding="UTF-8"?>
<svg id="Camada_1" data-name="Camada 1" xmlns="http://www.w3.org/2000/svg" viewBox="0 0 237.1 280.8">
  <defs>
    <style>
      .cls-1 {
        fill: #fff;
        fill-rule: evenodd;
      }

      .cls-1, .cls-2 {
        stroke-width: 0px;
      }

      .cls-2 {
        fill: #f15a24;
      }
    </style>
  </defs>
  <polygon class="cls-2" points="170.92 33.07 159.68 18.26 18.1 18.26 18.1 79.31 26.71 89 26.71 193.84 18.1 203.52 18.1 252.14 29.82 264.24 207.21 264.24 219 249.73 219 123.55 170.92 75.47 170.92 33.07"/>
  <g id="Page-1">
    <g id="Dribbble-Light-Preview">
      <g id="icons">
        <path id="html-_124_" data-name="html-[#124]" class="cls-1" d="M149.69,131.69h-55.11l1.32,12.78h52.48c-.77,11.2-3.1,34.92-3.95,45.71l-29.48,8.3v.02l-.07.03-29.5-10.38-2.02-24.51h14.46l1.02,13.18,16.06,5.99h.04l16.04-5.75,1.65-19.81h-49.91c-.24-2.56-3.34-35.84-3.89-38.34h72.14c-.4,4.22-.81,8.55-1.29,12.78h0ZM57.44,93.35l10.47,115.98,46.98,11.84,47.1-12.07,10.48-115.74H57.44Z"/>
      </g>
    </g>
  </g>
</svg>