<?xml version="1.0" encoding="UTF-8"?>
<svg id="Camada_1" data-name="Camada 1" xmlns="http://www.w3.org/2000/svg" viewBox="0 0 237.1 280.8">
  <defs>
    <style>
      .cls-1 {
        fill: #1a1a1a;
      }

      .cls-1, .cls-2 {
        stroke-width: 0px;
      }

      .cls-2 {
        fill: #0a64ff;
      }
    </style>
  </defs>
  <polygon class="cls-1" points="173.92 74.22 173.92 32.06 161.17 15.26 15.1 15.26 15.1 253.36 28.55 267.24 208.63 267.24 222 250.8 222 122.3 173.92 74.22"/>
  <path class="cls-2" d="M173.92,74.22v-42.16l-12.75-16.8H15.1v238.09l13.44,13.88h180.09l13.37-16.44V122.3l-48.08-48.08ZM219,249.73l-11.79,14.51H29.82l-11.71-12.1v-48.62l8.61-9.69v-104.84l-8.61-9.69V18.26h141.58l11.24,14.81v42.39l48.08,48.08v126.19Z"/>
  <rect class="cls-2" x="69.15" y="122.59" width="17.71" height="56.16" rx="2.83" ry="2.83"/>
  <circle class="cls-2" cx="78.01" cy="106.38" r="11.44"/>
  <path class="cls-2" d="M149.82,176.15c0,1.44-1.17,2.6-2.6,2.6h-12.93c-1.44,0-2.6-1.17-2.6-2.6v-23.69c0-3.53,1.04-15.48-9.23-15.48-7.97,0-9.58,8.18-9.91,11.85v27.32c0,1.44-1.16,2.6-2.6,2.6h-12.5c-1.44,0-2.6-1.17-2.6-2.6v-50.96c0-1.44,1.17-2.6,2.6-2.6h12.5c1.44,0,2.6,1.17,2.6,2.6v4.41c2.95-4.43,7.34-7.86,16.69-7.86,20.7,0,20.58,19.34,20.58,29.96v24.44h0Z"/>
</svg>