<?xml version="1.0" encoding="UTF-8"?>
<svg id="Camada_1" data-name="Camada 1" xmlns="http://www.w3.org/2000/svg" viewBox="0 0 237.1 280.8">
  <defs>
    <style>
      .cls-1 {
        fill: #fff;
      }

      .cls-1, .cls-2 {
        stroke-width: 0px;
      }

      .cls-2 {
        fill: #fbbc04;
      }
    </style>
  </defs>
  <polygon class="cls-2" points="170.92 33.07 159.68 18.26 18.1 18.26 18.1 79.31 26.71 89 26.71 193.84 18.1 203.52 18.1 252.14 29.82 264.24 207.21 264.24 219 249.73 219 123.55 170.92 75.47 170.92 33.07"/>
  <g id="_5151e0c8492e5103c096af88a51e7e7e" data-name="5151e0c8492e5103c096af88a51e7e7e">
    <path class="cls-1" d="M110.75,152.51c0,13.34.95,24.54-5.63,31.17-3.7,3.73-9.54,5.93-16.73,5.93-11.79,0-18.33-5.74-22.5-13.69,4.02-2.57,8.13-5.05,12.32-7.45,1.71,4.78,7.48,10.15,13.99,6.84,4.13-2.1,3.65-8.46,3.65-15.36v-43.79c-.01-.22-.03-.43.15-.46h14.75c0,11.52,0,24.55,0,36.8ZM148.16,143.85c-3.76-1.61-8.43-3.51-9.58-7-1.28-3.9.91-7.12,3.34-8.21,5.36-2.41,11.75,1.56,13.08,5.63,4.04-2.4,8.06-4.82,11.71-7.6-4.29-7.13-10.58-12.23-22.05-11.86-6.31.2-11.06,2.19-14.6,5.17-3.46,2.9-6.12,6.98-6.54,12.77-1.24,17.35,11.74,21.78,22.81,26.61,3.49,1.52,7.37,3.06,8.97,6.08,3.31,6.24-2.55,10.36-7.6,10.8-8.11.71-13.57-4.04-16.73-8.97-3.94,2.44-8.23,4.54-12.01,7.15,5.26,9.25,13.89,15.24,27.37,15.21,13.75-.04,23.95-6.67,24.79-19.16,1.14-16.98-11.58-21.74-22.96-26.61Z"/>
  </g>
</svg>