<?xml version="1.0" encoding="UTF-8"?>
<svg id="Camada_1" data-name="Camada 1" xmlns="http://www.w3.org/2000/svg" viewBox="0 0 237.1 280.8">
  <defs>
    <style>
      .cls-1 {
        fill: #5d00ff;
      }

      .cls-1, .cls-2 {
        stroke-width: 0px;
      }

      .cls-2 {
        fill: #fff;
      }
    </style>
  </defs>
  <polygon class="cls-1" points="170.92 33.07 159.68 18.26 18.1 18.26 18.1 79.31 26.71 89 26.71 193.84 18.1 203.52 18.1 252.14 29.82 264.24 207.21 264.24 219 249.73 219 123.55 170.92 75.47 170.92 33.07"/>
  <g id="_5151e0c8492e5103c096af88a51e2ea6" data-name="5151e0c8492e5103c096af88a51e2ea6">
    <path class="cls-2" d="M153.4,143.77c.84.93,1.04,2.54.6,4.81-.46,2.37-1.35,4.06-2.66,5.07-1.32,1.01-3.32,1.52-6,1.52h-4.05l2.49-12.8h4.57c2.53,0,4.22.47,5.06,1.4ZM96.32,142.36h-4.57l-2.49,12.8h4.05c2.69,0,4.69-.51,6-1.52,1.31-1.01,2.2-2.7,2.66-5.07.44-2.27.24-3.88-.6-4.81-.84-.93-2.53-1.4-5.06-1.4ZM178.49,151.04c0,16.86-25.98,30.53-58.03,30.53s-58.03-13.67-58.03-30.53,25.98-30.53,58.03-30.53,58.03,13.67,58.03,30.53ZM107.4,153.14c.69-1.24,1.18-2.6,1.47-4.1.7-3.63.17-6.45-1.6-8.48-1.77-2.02-4.58-3.04-8.44-3.04h-12.82l-5.95,30.59h6.66l1.58-8.13h5.71c2.52,0,4.59-.26,6.22-.79,1.63-.53,3.1-1.42,4.44-2.66,1.12-1.03,2.02-2.16,2.71-3.4ZM130.86,160l2.77-14.24c.56-2.9.14-4.99-1.27-6.28-1.41-1.29-3.96-1.94-7.67-1.94h-5.89l1.58-8.13h-6.61l-5.95,30.59h6.61l3.41-17.53h5.28c1.69,0,2.8.28,3.32.84.52.56.63,1.61.33,3.15l-2.63,13.54h6.72ZM159.3,140.57c-1.77-2.02-4.58-3.04-8.43-3.04h-12.82l-5.95,30.59h6.66l1.58-8.13h5.71c2.52,0,4.59-.26,6.22-.79,1.63-.53,3.1-1.42,4.44-2.66,1.12-1.03,2.02-2.16,2.71-3.4.69-1.24,1.18-2.6,1.47-4.1.7-3.63.17-6.45-1.6-8.48Z"/>
  </g>
</svg>