<?xml version="1.0" encoding="UTF-8"?>
<svg id="Camada_1" data-name="Camada 1" xmlns="http://www.w3.org/2000/svg" viewBox="0 0 237.1 280.8">
  <defs>
    <style>
      .cls-1 {
        fill: #ffd43b;
      }

      .cls-1, .cls-2, .cls-3 {
        stroke-width: 0px;
      }

      .cls-2 {
        fill: #00304d;
      }

      .cls-3 {
        fill: #5a9fd4;
      }
    </style>
  </defs>
  <polygon class="cls-2" points="170.92 33.07 159.68 18.26 18.1 18.26 18.1 79.31 26.71 89 26.71 193.84 18.1 203.52 18.1 252.14 29.82 264.24 207.21 264.24 219 249.73 219 123.55 170.92 75.47 170.92 33.07"/>
  <path id="p" class="cls-3" d="M117.96,98.32c-4.73,0-9.16.3-13,1.18-11.52,2.07-13.59,6.2-13.59,13.88v10.34h27.18v3.55h-37.22c-7.98,0-14.77,4.73-17.13,13.59-2.36,10.34-2.36,16.84,0,27.47,2.07,8.27,6.79,13.88,14.48,13.88h9.45v-12.41c0-8.86,7.68-16.84,16.84-16.84h26.88c7.68,0,13.59-6.2,13.59-13.59v-26c0-7.09-6.2-12.7-13.59-13.88-4.43-.89-9.45-1.18-13.88-1.18ZM103.19,106.59c2.95,0,5.02,2.36,5.02,5.32,0,2.66-2.07,5.02-5.02,5.02-2.66,0-5.02-2.36-5.02-5.02,0-2.95,2.36-5.32,5.02-5.32Z"/>
  <path id="p-2" data-name="p" class="cls-1" d="M119.14,211.17c4.73,0,9.16-.3,13-1.18,11.52-2.07,13.59-6.2,13.59-13.88v-10.34h-27.18v-3.55h37.22c7.98,0,14.77-4.73,17.13-13.59,2.36-10.34,2.36-16.84,0-27.47-2.07-8.27-6.79-13.88-14.48-13.88h-9.45v12.41c0,8.86-7.68,16.84-16.84,16.84h-26.88c-7.68,0-13.59,6.2-13.59,13.59v26c0,7.09,6.2,12.7,13.59,13.88,4.43.89,9.45,1.18,13.88,1.18ZM133.91,202.9c-2.95,0-5.02-2.36-5.02-5.32,0-2.66,2.07-5.02,5.02-5.02,2.66,0,5.02,2.36,5.02,5.02,0,2.95-2.36,5.32-5.02,5.32Z"/>
</svg>