<?xml version="1.0" encoding="UTF-8"?>
<svg id="Camada_1" data-name="Camada 1" xmlns="http://www.w3.org/2000/svg" viewBox="0 0 237.1 280.8">
  <defs>
    <style>
      .cls-1 {
        fill: #8cc63f;
      }

      .cls-1, .cls-2 {
        stroke-width: 0px;
      }

      .cls-2 {
        fill: #1a1a1a;
      }
    </style>
  </defs>
  <polygon class="cls-2" points="173.92 74.22 173.92 32.06 161.17 15.26 15.1 15.26 15.1 253.36 28.55 267.24 208.63 267.24 222 250.8 222 122.3 173.92 74.22"/>
  <path class="cls-1" d="M155.89,102.18c-9.73-9.92-23.07-15.49-36.97-15.43h-.09c-28.62,0-52.16,23.55-52.16,52.16,0,.13,0,.27,0,.4.11,9.1,2.46,18.03,6.86,26l-7.43,27.14,27.68-7.14c7.65,4.2,16.24,6.36,24.97,6.28,28.72-.16,52.27-23.84,52.25-52.56.07-13.8-5.37-27.07-15.11-36.85M118.92,182.74c-7.73.04-15.33-2.03-21.97-6l-1.71-.86-16.48,4.29,4.28-16.28-1.14-1.71c-4.24-6.85-6.49-14.75-6.49-22.82,0-23.77,19.56-43.34,43.34-43.34s43.34,19.56,43.34,43.34c0,14.97-7.76,28.92-20.47,36.81-6.73,4.31-14.55,6.59-22.54,6.57M144.18,151.03l-3.14-1.43s-4.57-2-7.43-3.43c-.29,0-.57-.29-.86-.29-.7.02-1.39.21-2,.57-.61.36-.29.29-4.28,4.86-.27.53-.83.87-1.43.86h-.29c-.43-.07-.83-.27-1.14-.57l-1.43-.57c-3.06-1.3-5.87-3.14-8.28-5.43-.57-.57-1.43-1.14-2-1.71-2.11-2.03-3.94-4.33-5.43-6.86l-.29-.57c-.25-.35-.44-.73-.57-1.14-.07-.49.03-1,.29-1.43.26-.43,1.14-1.43,2-2.29.86-.86.86-1.43,1.43-2,.59-.83.8-1.87.57-2.86-1.33-3.7-2.86-7.32-4.57-10.86-.46-.71-1.17-1.23-2-1.43h-3.14c-.57,0-1.14.29-1.71.29l-.29.29c-.57.29-1.14.86-1.71,1.14-.57.29-.86,1.14-1.43,1.71-2,2.52-3.1,5.64-3.14,8.86.03,2.26.52,4.5,1.43,6.57l.29.86c2.57,5.48,6.15,10.43,10.57,14.57l1.14,1.14c.83.69,1.6,1.45,2.29,2.29,5.92,5.15,12.95,8.86,20.54,10.86.86.29,2,.29,2.86.57h2.86c1.49-.07,2.95-.46,4.28-1.14.7-.32,1.37-.7,2-1.14l.57-.57c.57-.57,1.14-.86,1.71-1.43.56-.5,1.04-1.08,1.43-1.71.55-1.28.93-2.62,1.14-4v-2c-.26-.23-.55-.42-.86-.57"/>
  <path class="cls-1" d="M173.92,74.22v-42.16l-12.75-16.8H15.1v238.09l13.44,13.88h180.09l13.37-16.44V122.3l-48.08-48.08ZM219,249.73l-11.79,14.51H29.82l-11.71-12.1v-48.62l8.61-9.69v-104.84l-8.61-9.69V18.26h141.58l11.24,14.81v42.39l48.08,48.08v126.19Z"/>
</svg>