<?xml version="1.0" encoding="UTF-8"?>
<svg id="Camada_1" data-name="Camada 1" xmlns="http://www.w3.org/2000/svg" viewBox="0 0 388.8 207">
  <defs>
    <style>
      .cls-1 {
        fill: #fff;
        stroke-width: 0px;
      }
    </style>
  </defs>
  <g>
    <path class="cls-1" d="M142.84,94.8l-16.68-16.68v-39.16l16.68-16.68h38.44l16.68,16.68v26.83h-58.74v7.25l9.43,9.43h44.24v12.33h-50.04ZM139.21,53.46h45.69v-9.43l-9.43-9.43h-26.83l-9.43,9.43v9.43Z"/>
    <path class="cls-1" d="M216.81,94.8V22.28h10.15v5.8h2.61l6.96-5.8h28.86v12.33h-25.24l-10.3,8.56v51.64h-13.05Z"/>
    <polygon class="cls-1" points="69.33 58.54 88.04 58.54 110.2 40.41 110.2 22.28 48.56 22.28 48.56 34.6 95.7 34.6 95.7 36.93 69.28 58.54 50.57 58.54 28.4 76.67 28.4 94.8 92.94 94.8 92.94 82.47 42.9 82.47 42.9 80.15 69.33 58.54"/>
    <g>
      <polygon class="cls-1" points="334.29 73.04 324.86 82.47 296.58 82.47 287.15 73.04 287.15 58.54 274.1 58.54 274.1 78.12 290.78 94.8 330.67 94.8 347.35 78.12 347.35 58.54 334.29 58.54 334.29 73.04"/>
      <polygon class="cls-1" points="343.72 22.28 303.83 22.28 287.15 38.96 287.15 58.54 300.21 58.54 300.21 44.03 309.64 34.6 337.92 34.6 347.35 44.03 347.35 58.54 360.4 58.54 360.4 38.96 343.72 22.28"/>
    </g>
  </g>
  <g>
    <path class="cls-1" d="M167.02,184.72v-72.52h10.15v5.8h2.61l6.96-5.8h33.94l15.23,15.23v57.29h-13.05v-52.22l-7.98-7.98h-24.51l-10.3,8.56v51.64h-13.05Z"/>
    <path class="cls-1" d="M272.18,184.72l-16.68-16.68v-39.16l16.68-16.68h38.44l16.68,16.68v26.83h-58.74v7.25l9.43,9.43h44.24v12.33h-50.04ZM268.55,143.39h45.69v-9.43l-9.43-9.43h-26.83l-9.43,9.43v9.43Z"/>
    <g>
      <polygon class="cls-1" points="121.7 162.97 112.27 172.4 83.99 172.4 74.56 162.97 74.56 148.46 61.51 148.46 61.51 168.04 78.19 184.72 118.07 184.72 134.75 168.04 134.75 148.46 121.7 148.46 121.7 162.97"/>
      <polygon class="cls-1" points="131.13 112.2 91.24 112.2 74.56 128.88 74.56 148.46 87.61 148.46 87.61 133.96 97.04 124.53 125.32 124.53 134.75 133.96 134.75 148.46 147.81 148.46 147.81 128.88 131.13 112.2"/>
    </g>
  </g>
</svg>